<svg width="512" height="512" viewBox="0 0 512 512" fill="none" xmlns="http://www.w3.org/2000/svg">
<g clip-path="url(#clip0_9_2)">
<path d="M399.531 256C399.531 176.855 335.145 112.469 256 112.469C176.855 112.469 112.469 176.855 112.469 256V275.875C112.469 297.531 119.918 318.773 133.449 335.688L161.977 371.348C171.492 383.242 176.734 398.184 176.734 413.414V464.863C176.734 468.844 178.313 472.656 181.129 475.473L213.262 507.605C216.074 510.418 219.887 512 223.867 512H288.133C292.113 512 295.93 510.418 298.738 507.605L330.871 475.473C333.687 472.656 335.266 468.844 335.266 464.863V413.414C335.266 398.184 340.508 383.242 350.023 371.348L378.551 335.688C392.082 318.773 399.531 297.531 399.531 275.875V256ZM281.922 482H230.078L206.734 458.652V447.734H305.266V458.652L281.922 482ZM369.531 275.875C369.531 290.746 364.414 305.336 355.125 316.949L326.598 352.609C312.844 369.801 305.266 391.398 305.266 413.418V417.734H271V320.266C271 311.98 264.285 305.266 256 305.266C247.715 305.266 241 311.98 241 320.266V417.734H206.734V413.418C206.734 391.398 199.156 369.801 185.402 352.609L156.875 316.949C147.586 305.336 142.469 290.746 142.469 275.875V256C142.469 193.398 193.398 142.469 256 142.469C318.602 142.469 369.531 193.398 369.531 256V275.875Z" fill="#11016D"/>
<path d="M497 241H464.867C456.582 241 449.867 247.715 449.867 256C449.867 264.285 456.582 271 464.867 271H497C505.285 271 512 264.285 512 256C512 247.715 505.285 241 497 241Z" fill="#11016D"/>
<path d="M47.1328 241H15C6.71484 241 0 247.715 0 256C0 264.285 6.71484 271 15 271H47.1328C55.418 271 62.1328 264.285 62.1328 256C62.1328 247.715 55.418 241 47.1328 241Z" fill="#11016D"/>
<path d="M414.297 393.086C408.441 387.227 398.941 387.227 393.086 393.086C387.227 398.941 387.227 408.441 393.086 414.297L415.809 437.02C418.734 439.949 422.574 441.414 426.414 441.414C430.25 441.414 434.09 439.949 437.02 437.02C442.879 431.164 442.879 421.664 437.02 415.809L414.297 393.086Z" fill="#11016D"/>
<path d="M97.7031 118.914C100.633 121.844 104.469 123.309 108.309 123.309C112.145 123.309 115.984 121.844 118.914 118.914C124.773 113.059 124.773 103.559 118.914 97.7031L96.1914 74.9805C90.3359 69.1211 80.8398 69.1211 74.9805 74.9805C69.1211 80.8359 69.1211 90.3359 74.9805 96.1914L97.7031 118.914Z" fill="#11016D"/>
<path d="M97.7031 393.086L74.9805 415.809C69.1211 421.664 69.1211 431.16 74.9805 437.02C77.9102 439.949 81.7461 441.414 85.5859 441.414C89.4258 441.414 93.2656 439.949 96.1914 437.02L118.914 414.297C124.773 408.441 124.773 398.941 118.914 393.086C113.059 387.227 103.559 387.227 97.7031 393.086Z" fill="#11016D"/>
<path d="M415.809 74.9805L393.086 97.7031C387.227 103.559 387.227 113.059 393.086 118.914C396.016 121.844 399.852 123.309 403.691 123.309C407.527 123.309 411.367 121.844 414.297 118.914L437.02 96.1914C442.879 90.3359 442.879 80.8398 437.02 74.9805C431.16 69.1211 421.664 69.1211 415.809 74.9805Z" fill="#11016D"/>
<path d="M256 62.1328C264.285 62.1328 271 55.418 271 47.1328V15C271 6.71484 264.285 0 256 0C247.715 0 241 6.71484 241 15V47.1328C241 55.418 247.715 62.1328 256 62.1328Z" fill="#11016D"/>
</g>
<defs>
<clipPath id="clip0_9_2">
<rect width="512" height="512" fill="white"/>
</clipPath>
</defs>
</svg>
