<!-- icon666.com - MILLIONS vector ICONS FREE --><svg viewBox="0 0 64 64" xmlns="http://www.w3.org/2000/svg" xmlns:xlink="http://www.w3.org/1999/xlink"><linearGradient id="linear-gradient" gradientUnits="userSpaceOnUse" x1="13.785" x2="21.788" y1="44.277" y2="42.317"><stop offset=".12928" stop-color="#f7f8f9"></stop><stop offset=".29958" stop-color="#edf0f2"></stop><stop offset=".89717" stop-color="#cfd8dc"></stop></linearGradient><linearGradient id="linear-gradient-2" gradientUnits="userSpaceOnUse" x1="37.868" x2="58.771" y1="25.156" y2="36.948"><stop offset=".14502" stop-color="#73858c"></stop><stop offset=".39568" stop-color="#63767e"></stop><stop offset=".93996" stop-color="#455a64"></stop></linearGradient><linearGradient id="linear-gradient-3" gradientUnits="userSpaceOnUse" x1="2.958" x2="27.033" y1="17.988" y2="31.513"><stop offset=".14444" stop-color="#e3f2fd"></stop><stop offset=".40319" stop-color="#c4e3fc"></stop><stop offset=".76472" stop-color="#9ed1fa"></stop><stop offset=".95533" stop-color="#90caf9"></stop></linearGradient><linearGradient id="linear-gradient-4" gradientUnits="userSpaceOnUse" x1="1.806" x2="31.595" y1="33.287" y2="39.108"><stop offset=".14502" stop-color="#73858c"></stop><stop offset=".38689" stop-color="#63767e"></stop><stop offset=".91207" stop-color="#455a64"></stop></linearGradient><linearGradient id="linear-gradient-5" x1="45.843" x2="54.196" xlink:href="#linear-gradient" y1="39.266" y2="44.759"></linearGradient><linearGradient id="linear-gradient-6" x1="9.72" x2="25.743" xlink:href="#linear-gradient-4" y1="46.475" y2="49.108"></linearGradient><linearGradient id="linear-gradient-7" gradientUnits="userSpaceOnUse" x1="42.674" x2="58.163" y1="18.102" y2="22.115"><stop offset=".12928" stop-color="#f7f8f9"></stop><stop offset=".29086" stop-color="#edf0f2"></stop><stop offset=".85783" stop-color="#cfd8dc"></stop></linearGradient><g id="computer"><rect fill="url(#linear-gradient)" height="8" rx="1" width="10" x="14" y="39"></rect><path d="m23 39h-8a.99974.99974 0 0 0 -1 1v3h6a2 2 0 0 1 2 2v2h1a.99974.99974 0 0 0 1-1v-6a.99974.99974 0 0 0 -1-1z" fill="#cfd8dc"></path><rect fill="url(#linear-gradient-2)" height="38" rx="5" width="24" x="38" y="13"></rect><path d="m38 44.07611v1.92389a5.00588 5.00588 0 0 0 5 5h14a5.00588 5.00588 0 0 0 5-5v-21.42554c-3.26947 16.45246-17.07245 19.18939-24 19.50165z" fill="#455a64"></path><rect fill="url(#linear-gradient-3)" height="28" rx="5" width="34" x="2" y="13"></rect><path d="m2 30.94269v5.05731a5.00588 5.00588 0 0 0 5 5h24a5.00588 5.00588 0 0 0 5-5v-18a4.93536 4.93536 0 0 0 -.188-1.28363c-5.30022 12.03046-27.08843 13.92975-33.812 14.22632z" fill="#90caf9"></path><path d="m35 33h-32a.99974.99974 0 0 0 -1 1v2a5.00588 5.00588 0 0 0 5 5h24a5.00588 5.00588 0 0 0 5-5v-2a.99974.99974 0 0 0 -1-1z" fill="url(#linear-gradient-4)"></path><circle cx="50" cy="42" fill="url(#linear-gradient-5)" r="5"></circle><path d="m52.37329 37.62671a4.936 4.936 0 0 1 .62671 2.37329 5.00588 5.00588 0 0 1 -5 5 4.936 4.936 0 0 1 -2.37329-.62671 4.98276 4.98276 0 1 0 6.74658-6.74658z" fill="#cfd8dc"></path><path d="m57 27h-14a1 1 0 0 1 0-2h14a1 1 0 0 1 0 2z" fill="#eee"></path><path d="m35 33h-2v1a4 4 0 0 1 -4 4h-26.57617a5.00324 5.00324 0 0 0 4.57617 3h24a5.00588 5.00588 0 0 0 5-5v-2a.99974.99974 0 0 0 -1-1z" fill="#455a64"></path><path d="m25 45h-12a3 3 0 0 0 0 6h12a3 3 0 0 0 0-6z" fill="url(#linear-gradient-6)"></path><path d="m26 45.18427v1.81573a2 2 0 0 1 -2 2h-13.81567a2.995 2.995 0 0 0 2.81567 2h12a2.99257 2.99257 0 0 0 1-5.81573z" fill="#455a64"></path><rect fill="url(#linear-gradient-7)" height="6" rx="1" width="16" x="42" y="17"></rect><path d="m57 17h-1a4 4 0 0 1 -4 4h-10v1a.99974.99974 0 0 0 1 1h14a.99974.99974 0 0 0 1-1v-4a.99974.99974 0 0 0 -1-1z" fill="#cfd8dc"></path><g fill="#fff"><path d="m5 21a.99974.99974 0 0 1 -1-1v-2a3.00328 3.00328 0 0 1 3-3h1a1 1 0 0 1 0 2h-1a1.001 1.001 0 0 0 -1 1v2a.99974.99974 0 0 1 -1 1z"></path><circle cx="5" cy="24" r="1"></circle></g></g></svg>