<!-- icon666.com - MILLIONS vector ICONS FREE --><svg id="Capa_1" enable-background="new 0 0 512 512" viewBox="0 0 512 512" xmlns="http://www.w3.org/2000/svg"><path d="m443.5 193.63v279.4c0 21.49-17.56 38.97-39.14 38.97h-230.5c-21.58 0-39.14-17.48-39.14-38.97v-35.62c0-3.46 1.2-6.82 3.39-9.49l88.07-107.81 131.07-160.45c2.84-3.49 7.11-5.51 11.61-5.51h35.02c21.85 0 39.62 17.71 39.62 39.48z" fill="#bce9f8"></path><path d="m443.5 193.63v279.4c0 21.49-17.56 38.97-39.14 38.97h-178.18v-191.89l131.07-160.45c2.84-3.49 7.11-5.51 11.61-5.51h35.02c21.85 0 39.62 17.71 39.62 39.48z" fill="#9ce0f6"></path><path d="m383.86 102.53v310.91c0 21.48-17.55 38.97-39.14 38.97h-237.09c-21.58 0-39.13-17.49-39.13-38.97v-374.47c0-21.49 17.55-38.97 39.13-38.97h173.14l32.15 71.87z" fill="#e4f6fc"></path><path d="m383.86 102.53v310.91c0 21.48-17.55 38.97-39.14 38.97h-118.54v-452.41h54.59l32.15 71.87z" fill="#bce9f8"></path><path d="m383.86 97.53v5h-88.09c-8.28 0-15-6.71-15-15v-87.53h5c3.96 0 7.76 1.57 10.57 4.36l83.09 82.53c2.84 2.82 4.43 6.65 4.43 10.64z" fill="#9ce0f6"></path><path d="m328.57 152.11v70.08c0 8.29-6.72 15-15 15h-174.78c-8.28 0-15-6.71-15-15v-70.08c0-8.29 6.72-15 15-15h174.78c8.28 0 15 6.71 15 15z" fill="#aded48" style="fill: rgb(74, 123, 237);"></path><g fill="#bce9f8"><path d="m304.11 276.66c0 8.29-6.72 15-15 15h-150.32c-8.28 0-15-6.71-15-15 0-8.28 6.72-15 15-15h150.32c8.28 0 15 6.72 15 15z" fill="#bce9f8"></path><path d="m328.57 326.66c0 8.29-6.72 15-15 15h-174.78c-8.28 0-15-6.71-15-15 0-8.28 6.72-15 15-15h174.78c8.28 0 15 6.72 15 15z" fill="#bce9f8"></path><path d="m203.645 361.661h-64.855c-8.284 0-15 6.716-15 15s6.716 15 15 15h64.855c8.284 0 15-6.716 15-15s-6.715-15-15-15z" fill="#bce9f8"></path></g><path d="m289.11 291.66h-62.93v-30h62.93c8.28 0 15 6.72 15 15 0 8.29-6.72 15-15 15z" fill="#9ce0f6"></path><path d="m328.57 326.66c0 8.29-6.72 15-15 15h-87.39v-30h87.39c8.28 0 15 6.72 15 15z" fill="#9ce0f6"></path><path d="m328.57 152.11v70.08c0 8.29-6.72 15-15 15h-87.39v-100.08h87.39c8.28 0 15 6.71 15 15z" fill="#70d840" style="fill: rgb(82, 65, 216);"></path></svg>